<svg width="58" height="58" viewBox="0 0 58 58" fill="none" xmlns="http://www.w3.org/2000/svg">
<g filter="url(#filter0_d_131_481)">
<path d="M44.4282 4H13.5718C8.83772 4 5 7.83772 5 12.5718V43.4282C5 48.1623 8.83772 52 13.5718 52H44.4282C49.1623 52 53 48.1623 53 43.4282V12.5718C53 7.83772 49.1623 4 44.4282 4Z" fill="#6244EC"/>
<path d="M28.9946 12.7033C20.5442 12.7033 13.6929 19.5547 13.6929 28.005C13.6929 36.4554 20.5442 43.3067 28.9946 43.3067C37.4449 43.3067 44.2963 36.4554 44.2963 28.005C44.2963 19.5547 37.4449 12.7033 28.9946 12.7033ZM28.9946 15.3649C31.8991 15.3649 34.5607 16.3567 36.696 18.0063C35.1578 19.9898 33.0427 21.5483 30.3406 22.702C29.0452 20.3339 27.5676 18.0164 25.8978 15.7697C26.8896 15.5167 27.9218 15.3649 28.9946 15.3649ZM23.2969 16.7413C24.9971 18.9677 26.4949 21.2549 27.8105 23.6027C24.7137 24.5136 21.0098 24.9791 16.739 25.0094C17.6195 21.3965 20.0585 18.3908 23.307 16.7413H23.2969ZM16.3646 28.005C16.3646 27.8937 16.3747 27.7925 16.3848 27.6812C21.2931 27.6812 25.5234 27.1144 29.0654 25.9911C29.3589 26.5983 29.6423 27.2055 29.9155 27.8127C25.6043 29.1587 22.0623 31.9215 19.2893 36.0708C17.4677 33.8848 16.3646 31.0613 16.3646 27.9949V28.005ZM29.0047 40.6451C26.08 40.6451 23.3981 39.6432 21.2526 37.9633C23.7624 34.0265 26.9705 31.4661 30.9377 30.2821C32.1217 33.3687 32.9921 36.5363 33.5385 39.795C32.1318 40.3415 30.6037 40.6451 29.0047 40.6451ZM36.018 38.5098C35.4614 35.5142 34.6416 32.5793 33.5689 29.7153C35.9573 29.3814 38.5885 29.4623 41.4728 29.9683C40.9161 33.5205 38.8921 36.5869 36.018 38.5098ZM32.5468 27.1954C32.233 26.4769 31.9092 25.7583 31.5651 25.0499C34.5101 23.7748 36.8782 22.0442 38.6391 19.8482C40.3595 21.8823 41.4424 24.463 41.5942 27.2865C38.3153 26.7501 35.2893 26.7198 32.5366 27.1954H32.5468Z" fill="white"/>
</g>
<defs>
<filter id="filter0_d_131_481" x="0" y="0" width="58" height="58" filterUnits="userSpaceOnUse" color-interpolation-filters="sRGB">
<feFlood flood-opacity="0" result="BackgroundImageFix"/>
<feColorMatrix in="SourceAlpha" type="matrix" values="0 0 0 0 0 0 0 0 0 0 0 0 0 0 0 0 0 0 127 0" result="hardAlpha"/>
<feOffset dy="1"/>
<feGaussianBlur stdDeviation="2.5"/>
<feComposite in2="hardAlpha" operator="out"/>
<feColorMatrix type="matrix" values="0 0 0 0 0.270588 0 0 0 0 0 0 0 0 0 0.67451 0 0 0 0.3 0"/>
<feBlend mode="normal" in2="BackgroundImageFix" result="effect1_dropShadow_131_481"/>
<feBlend mode="normal" in="SourceGraphic" in2="effect1_dropShadow_131_481" result="shape"/>
</filter>
</defs>
</svg>
