<svg width="58" height="58" viewBox="0 0 58 58" fill="none" xmlns="http://www.w3.org/2000/svg">
<g filter="url(#filter0_d_131_477)">
<path d="M44.4282 4H13.5718C8.83772 4 5 7.83772 5 12.5718V43.4282C5 48.1623 8.83772 52 13.5718 52H44.4282C49.1623 52 53 48.1623 53 43.4282V12.5718C53 7.83772 49.1623 4 44.4282 4Z" fill="#6244EC"/>
<path d="M31.8993 35.1904C32.2737 35.1297 32.6482 35.0791 33.0226 35.0083C34.0043 34.8261 34.9556 34.5326 35.8259 34.0165C37.0808 33.2777 37.9107 32.205 38.3762 30.8489C38.7506 29.766 38.862 28.6427 38.862 27.4991C38.862 26.7097 38.7102 25.9507 38.4167 25.2119C38.1738 24.6047 37.8297 24.0582 37.3945 23.5623C37.3338 23.4915 37.2832 23.4308 37.3237 23.3194C37.688 22.2771 37.6678 21.2144 37.3945 20.162C37.3237 19.8887 37.2326 19.6256 37.1517 19.3726C36.8278 19.2714 36.5343 19.322 36.2408 19.3726C35.6944 19.4637 35.1782 19.6661 34.6823 19.8988C34.1156 20.1721 33.5691 20.4858 33.0429 20.8299C32.9315 20.9007 32.8303 20.921 32.6988 20.8906C31.1808 20.4858 29.6222 20.3542 28.0536 20.4453C27.1428 20.506 26.2421 20.6477 25.3617 20.8805C25.2098 20.921 25.0985 20.8906 24.9771 20.8096C24.3598 20.3947 23.7222 20.0405 23.0441 19.747C22.5381 19.5345 22.0321 19.3726 21.4856 19.322C21.4755 19.322 21.4553 19.322 21.4451 19.322C20.9695 19.2815 20.9391 19.2916 20.7873 19.7571C20.423 20.8602 20.3319 21.9836 20.676 23.1069C20.757 23.3599 20.7165 23.5219 20.5546 23.7141C19.7652 24.6654 19.3199 25.7685 19.2288 27.0032C19.1276 28.3188 19.2592 29.6142 19.6944 30.8691C20.2611 32.5389 21.3743 33.7129 22.9834 34.4112C23.8031 34.7654 24.6634 34.9779 25.5438 35.1095C25.7462 35.1398 25.9486 35.1702 26.1611 35.2005C26.0093 35.4029 25.8575 35.5851 25.726 35.7774C25.473 36.1721 25.3313 36.6072 25.2604 37.0728C25.2402 37.2043 25.1896 37.2853 25.0479 37.3359C24.4306 37.5687 23.8031 37.7103 23.1352 37.6496C22.275 37.5585 21.5969 37.1537 21.0606 36.4757C20.9391 36.3138 20.8278 36.1417 20.7165 35.9798C20.3319 35.4029 19.8765 34.9071 19.2389 34.6136C18.8341 34.4213 18.4091 34.3707 17.9739 34.4516C17.9638 34.4516 17.9436 34.4516 17.9334 34.4516C17.6298 34.5225 17.559 34.7046 17.7614 34.9374C17.8727 35.069 18.0144 35.2107 18.1662 35.2916C18.6823 35.575 19.0365 36.0203 19.3503 36.4959C19.6033 36.8906 19.836 37.2954 20.0081 37.7407C20.3623 38.611 21.0302 39.1373 21.9208 39.3903C22.6494 39.6028 23.4085 39.6129 24.1573 39.5421C24.4711 39.5117 24.7848 39.4611 25.1188 39.4207C25.1188 39.4814 25.139 39.532 25.139 39.5927C25.139 40.4428 25.1592 41.303 25.1694 42.1531C25.1694 42.2239 25.1694 42.2948 25.1694 42.3656C25.1188 42.7502 24.8658 43.0032 24.4812 43.0234C24.3193 43.0234 24.1472 43.0234 23.9954 42.9627C21.8803 42.2442 20.0081 41.1006 18.3787 39.5725C17.0024 38.267 15.8993 36.759 15.0694 35.0386C14.4217 33.6926 13.9866 32.2758 13.7538 30.7881C13.6222 29.9684 13.5615 29.1487 13.5615 28.3289C13.5615 26.5174 13.8752 24.7464 14.5128 23.0462C15.8689 19.4434 18.237 16.711 21.6071 14.8387C23.2061 13.9583 24.9062 13.3916 26.7178 13.1284C27.8917 12.9564 29.0758 12.9058 30.2699 13.0171C33.306 13.2802 36.0384 14.3429 38.4572 16.205C40.3294 17.6521 41.7867 19.4434 42.8392 21.5687C43.5577 23.0057 44.0233 24.5339 44.256 26.1227C44.4281 27.3068 44.4685 28.501 44.3673 29.6952C44.2155 31.5168 43.7601 33.2575 42.9809 34.9071C41.5742 37.8925 39.4287 40.1999 36.5546 41.8394C35.7449 42.2948 34.905 42.6793 34.0245 42.9728C33.8626 43.0234 33.6804 43.0437 33.5185 43.0336C33.1339 43.0133 32.8708 42.7198 32.8607 42.3251C32.8607 41.9608 32.8607 41.6066 32.8607 41.2423C32.8607 40.0886 32.8809 38.9248 32.8607 37.7711C32.8607 37.1335 32.719 36.506 32.4053 35.9393C32.2636 35.6863 32.0713 35.4535 31.8993 35.1904Z" fill="white"/>
</g>
<defs>
<filter id="filter0_d_131_477" x="0" y="0" width="58" height="58" filterUnits="userSpaceOnUse" color-interpolation-filters="sRGB">
<feFlood flood-opacity="0" result="BackgroundImageFix"/>
<feColorMatrix in="SourceAlpha" type="matrix" values="0 0 0 0 0 0 0 0 0 0 0 0 0 0 0 0 0 0 127 0" result="hardAlpha"/>
<feOffset dy="1"/>
<feGaussianBlur stdDeviation="2.5"/>
<feComposite in2="hardAlpha" operator="out"/>
<feColorMatrix type="matrix" values="0 0 0 0 0.270588 0 0 0 0 0 0 0 0 0 0.67451 0 0 0 0.3 0"/>
<feBlend mode="normal" in2="BackgroundImageFix" result="effect1_dropShadow_131_477"/>
<feBlend mode="normal" in="SourceGraphic" in2="effect1_dropShadow_131_477" result="shape"/>
</filter>
</defs>
</svg>
