<svg width="58" height="58" viewBox="0 0 58 58" fill="none" xmlns="http://www.w3.org/2000/svg">
<g filter="url(#filter0_d_119_799)">
<path d="M44.4282 4H13.5718C8.83772 4 5 7.83772 5 12.5718V43.4282C5 48.1623 8.83772 52 13.5718 52H44.4282C49.1623 52 53 48.1623 53 43.4282V12.5718C53 7.83772 49.1623 4 44.4282 4Z" fill="white"/>
<path d="M31.8993 35.1904C32.2737 35.1296 32.6482 35.079 33.0226 35.0082C34.0043 34.826 34.9556 34.5325 35.8259 34.0164C37.0808 33.2776 37.9107 32.2049 38.3762 30.8488C38.7506 29.7659 38.862 28.6426 38.862 27.499C38.862 26.7096 38.7102 25.9506 38.4167 25.2119C38.1738 24.6047 37.8297 24.0582 37.3945 23.5623C37.3338 23.4914 37.2832 23.4307 37.3237 23.3194C37.688 22.277 37.6678 21.2144 37.3945 20.1619C37.3237 19.8886 37.2326 19.6255 37.1517 19.3725C36.8278 19.2713 36.5343 19.3219 36.2408 19.3725C35.6944 19.4636 35.1782 19.666 34.6823 19.8988C34.1156 20.172 33.5691 20.4857 33.0429 20.8298C32.9315 20.9007 32.8303 20.9209 32.6988 20.8905C31.1808 20.4857 29.6222 20.3542 28.0536 20.4453C27.1428 20.506 26.2421 20.6477 25.3617 20.8804C25.2098 20.9209 25.0985 20.8905 24.9771 20.8096C24.3598 20.3947 23.7222 20.0404 23.0441 19.747C22.5381 19.5344 22.0321 19.3725 21.4856 19.3219C21.4755 19.3219 21.4553 19.3219 21.4451 19.3219C20.9695 19.2814 20.9391 19.2916 20.7873 19.7571C20.423 20.8602 20.3319 21.9835 20.676 23.1069C20.757 23.3599 20.7165 23.5218 20.5546 23.7141C19.7652 24.6654 19.3199 25.7685 19.2288 27.0031C19.1276 28.3188 19.2592 29.6141 19.6944 30.869C20.2611 32.5389 21.3743 33.7128 22.9834 34.4111C23.8031 34.7653 24.6634 34.9778 25.5438 35.1094C25.7462 35.1398 25.9486 35.1701 26.1611 35.2005C26.0093 35.4029 25.8575 35.585 25.726 35.7773C25.473 36.172 25.3313 36.6072 25.2604 37.0727C25.2402 37.2043 25.1896 37.2852 25.0479 37.3358C24.4306 37.5686 23.8031 37.7103 23.1352 37.6496C22.275 37.5585 21.5969 37.1537 21.0606 36.4756C20.9391 36.3137 20.8278 36.1417 20.7165 35.9797C20.3319 35.4029 19.8765 34.907 19.2389 34.6135C18.8341 34.4212 18.4091 34.3706 17.9739 34.4516C17.9638 34.4516 17.9436 34.4516 17.9334 34.4516C17.6298 34.5224 17.559 34.7046 17.7614 34.9374C17.8727 35.0689 18.0144 35.2106 18.1662 35.2916C18.6823 35.5749 19.0365 36.0202 19.3503 36.4959C19.6033 36.8905 19.836 37.2954 20.0081 37.7406C20.3623 38.611 21.0302 39.1372 21.9208 39.3902C22.6494 39.6028 23.4085 39.6129 24.1573 39.542C24.4711 39.5117 24.7848 39.4611 25.1188 39.4206C25.1188 39.4813 25.139 39.5319 25.139 39.5926C25.139 40.4427 25.1592 41.3029 25.1694 42.153C25.1694 42.2239 25.1694 42.2947 25.1694 42.3656C25.1188 42.7501 24.8658 43.0031 24.4812 43.0234C24.3193 43.0234 24.1472 43.0234 23.9954 42.9627C21.8803 42.2441 20.0081 41.1005 18.3787 39.5724C17.0024 38.2669 15.8993 36.759 15.0694 35.0386C14.4217 33.6926 13.9866 32.2757 13.7538 30.7881C13.6222 29.9683 13.5615 29.1486 13.5615 28.3289C13.5615 26.5174 13.8752 24.7463 14.5128 23.0461C15.8689 19.4434 18.237 16.7109 21.6071 14.8387C23.2061 13.9582 24.9062 13.3915 26.7178 13.1284C27.8917 12.9563 29.0758 12.9057 30.2699 13.017C33.306 13.2802 36.0384 14.3428 38.4572 16.2049C40.3294 17.6521 41.7867 19.4434 42.8392 21.5686C43.5577 23.0057 44.0233 24.5338 44.256 26.1227C44.4281 27.3067 44.4685 28.5009 44.3673 29.6951C44.2155 31.5167 43.7601 33.2574 42.9809 34.907C41.5742 37.8924 39.4287 40.1998 36.5546 41.8393C35.7449 42.2947 34.905 42.6793 34.0245 42.9728C33.8626 43.0234 33.6804 43.0436 33.5185 43.0335C33.1339 43.0133 32.8708 42.7198 32.8607 42.3251C32.8607 41.9608 32.8607 41.6065 32.8607 41.2422C32.8607 40.0885 32.8809 38.9247 32.8607 37.771C32.8607 37.1334 32.719 36.506 32.4053 35.9392C32.2636 35.6862 32.0713 35.4535 31.8993 35.1904Z" fill="#6244EC"/>
</g>
<defs>
<filter id="filter0_d_119_799" x="0" y="0" width="58" height="58" filterUnits="userSpaceOnUse" color-interpolation-filters="sRGB">
<feFlood flood-opacity="0" result="BackgroundImageFix"/>
<feColorMatrix in="SourceAlpha" type="matrix" values="0 0 0 0 0 0 0 0 0 0 0 0 0 0 0 0 0 0 127 0" result="hardAlpha"/>
<feOffset dy="1"/>
<feGaussianBlur stdDeviation="2.5"/>
<feComposite in2="hardAlpha" operator="out"/>
<feColorMatrix type="matrix" values="0 0 0 0 0.270588 0 0 0 0 0 0 0 0 0 0.67451 0 0 0 0.3 0"/>
<feBlend mode="normal" in2="BackgroundImageFix" result="effect1_dropShadow_119_799"/>
<feBlend mode="normal" in="SourceGraphic" in2="effect1_dropShadow_119_799" result="shape"/>
</filter>
</defs>
</svg>
