<svg width="265" height="284" viewBox="0 0 265 284" fill="none" xmlns="http://www.w3.org/2000/svg">
<path d="M48.0082 104.649H20.9607C9.38125 104.649 0 95.2676 0 83.6881C0 72.1087 9.38125 62.7274 20.9607 62.7274H48.0082C59.5877 62.7274 68.9689 72.1115 68.9689 83.6881C68.9689 95.2648 59.5877 104.649 48.0082 104.649Z" fill="#6244EC"/>
<path d="M146.415 104.649H119.367C107.788 104.649 98.4067 95.2676 98.4067 83.6881C98.4067 72.1087 107.788 62.7274 119.367 62.7274H146.415C157.994 62.7274 167.376 72.1115 167.376 83.6881C167.376 95.2648 157.994 104.649 146.415 104.649Z" fill="#6244EC"/>
<path d="M243.335 104.649H216.288C204.708 104.649 195.327 95.2676 195.327 83.6881C195.327 72.1087 204.708 62.7274 216.288 62.7274H243.335C254.915 62.7274 264.296 72.1115 264.296 83.6881C264.296 95.2648 254.915 104.649 243.335 104.649Z" fill="#6244EC"/>
<path d="M83.9773 68.9661C72.3978 68.9661 63.0166 59.582 63.0166 48.0053V20.9607C63.0166 9.38412 72.3978 0 83.9773 0C95.5568 0 104.938 9.38412 104.938 20.9607V48.0082C104.938 59.5848 95.5568 68.9689 83.9773 68.9689V68.9661Z" fill="#6244EC"/>
<path d="M83.9773 167.379C72.3978 167.379 63.0166 157.997 63.0166 146.418V119.37C63.0166 107.791 72.3978 98.4097 83.9773 98.4097C95.5568 98.4097 104.938 107.791 104.938 119.37V146.418C104.938 157.997 95.5568 167.379 83.9773 167.379Z" fill="#6244EC"/>
<path d="M181.348 68.9661C169.769 68.9661 160.388 59.582 160.388 48.0053V20.9607C160.388 9.38412 169.769 0 181.348 0C192.928 0 202.309 9.38412 202.309 20.9607V48.0082C202.309 59.5848 192.928 68.9689 181.348 68.9689V68.9661Z" fill="#6244EC"/>
<path d="M181.348 167.379C169.769 167.379 160.388 157.997 160.388 146.418V119.37C160.388 107.791 169.769 98.4097 181.348 98.4097C192.928 98.4097 202.309 107.791 202.309 119.37V146.418C202.309 157.997 192.928 167.379 181.348 167.379Z" fill="#6244EC"/>
<path d="M37.7398 271.58C34.6146 271.58 31.7965 271.083 29.2855 270.093C26.7745 269.103 24.6394 267.628 22.8773 265.668C21.1153 263.708 19.7522 261.266 18.7822 258.339C17.8122 255.411 17.3301 251.988 17.3301 248.068C17.3301 244.148 17.8151 240.747 18.7822 237.731C19.7493 234.718 21.1153 232.184 22.8773 230.135C24.6394 228.088 26.7745 226.536 29.2855 225.48C31.7937 224.424 34.6118 223.896 37.7398 223.896C42.01 223.896 45.5341 224.765 48.3063 226.504C50.2462 227.721 51.9193 229.432 53.3197 231.63C54.3385 233.228 53.7531 235.363 52.0714 236.236L49.3107 237.668C47.8069 238.448 45.9789 237.92 45.0692 236.488C44.6071 235.759 44.0648 235.117 43.4478 234.563C42.1478 233.398 40.2451 232.812 37.7341 232.812C34.784 232.812 32.4164 233.771 30.6343 235.685C28.8522 237.599 27.9597 240.385 27.9597 244.039V251.437C27.9597 255.093 28.8522 257.877 30.6343 259.791C32.4164 261.705 34.784 262.663 37.7341 262.663C40.1992 262.663 42.1707 261.992 43.6458 260.649C44.3661 259.994 44.9946 259.271 45.5312 258.485C46.4897 257.076 48.3608 256.634 49.8358 257.489L52.3297 258.936C53.9195 259.86 54.459 261.943 53.4345 263.473C52.0025 265.613 50.3036 267.358 48.3378 268.704C45.5427 270.618 42.0071 271.577 37.7369 271.577L37.7398 271.58Z" fill="#6244EC"/>
<path d="M87.2062 270.788C85.4441 270.788 83.9806 270.237 82.8154 269.137C81.6474 268.038 80.9099 266.56 80.6028 264.712H80.2068C79.6788 266.959 78.5108 268.664 76.7057 269.832C74.9006 270.997 72.6766 271.582 70.0335 271.582C66.5554 271.582 63.8922 270.661 62.0412 268.819C60.1931 266.976 59.269 264.54 59.269 261.51C59.269 257.868 60.6006 255.156 63.2638 253.38C65.9269 251.603 69.5485 250.714 74.1287 250.714H79.6099V248.535C79.6099 246.862 79.168 245.531 78.2898 244.541C77.4088 243.551 75.9337 243.054 73.8646 243.054C71.9276 243.054 70.3865 243.473 69.2415 244.308C68.9172 244.546 68.6072 244.79 68.3145 245.046C67.0805 246.119 65.2496 246.125 64.03 245.034L62.9366 244.059C61.5362 242.81 61.4615 240.609 62.8276 239.324C63.7516 238.451 64.779 237.705 65.9068 237.085C68.0419 235.911 70.9346 235.326 74.5907 235.326C79.5209 235.326 83.2201 236.405 85.6852 238.563C88.1503 240.721 89.3843 243.869 89.3843 248.007V263.197C91.1722 263.197 92.6214 264.646 92.6214 266.434V267.556C92.6214 269.344 91.1722 270.793 89.3843 270.793H87.2062V270.788ZM73.6666 264.778C75.2967 264.778 76.6942 264.428 77.8593 263.731C79.0245 263.031 79.6099 261.897 79.6099 260.322V256.258H74.8547C71.0236 256.258 69.1095 257.546 69.1095 260.126V261.111C69.1095 262.379 69.5055 263.306 70.2975 263.897C71.0896 264.488 72.2117 264.781 73.6666 264.781V264.778Z" fill="#6244EC"/>
<path d="M102.396 236.115H105.699C107.487 236.115 108.936 237.564 108.936 239.352V241.929H109.266C109.751 239.992 110.862 238.408 112.601 237.174C114.34 235.943 116.331 235.326 118.578 235.326C122.981 235.326 126.307 236.867 128.551 239.949C130.798 243.031 131.92 247.522 131.92 253.423C131.92 259.323 130.798 263.826 128.551 266.928C126.307 270.033 122.981 271.585 118.578 271.585C117.433 271.585 116.354 271.422 115.341 271.089C114.328 270.759 113.416 270.297 112.601 269.703C111.786 269.109 111.091 268.406 110.52 267.588C109.946 266.773 109.53 265.903 109.266 264.979H108.936V280.763C108.936 282.551 107.487 284 105.699 284H102.396C100.608 284 99.1587 282.551 99.1587 280.763V239.352C99.1587 237.564 100.608 236.115 102.396 236.115ZM115.338 263.656C117.187 263.656 118.716 263.008 119.927 261.708C121.138 260.41 121.744 258.66 121.744 256.456V250.447C121.744 248.246 121.138 246.495 119.927 245.198C118.716 243.901 117.187 243.249 115.338 243.249C113.49 243.249 111.961 243.703 110.75 244.604C109.539 245.508 108.933 246.75 108.933 248.335V258.571C108.933 260.155 109.539 261.401 110.75 262.302C111.961 263.206 113.49 263.656 115.338 263.656Z" fill="#6244EC"/>
<path d="M153.776 271.58C151.133 271.58 148.777 271.149 146.708 270.291C144.639 269.433 142.888 268.222 141.459 266.658C140.027 265.097 138.948 263.191 138.222 260.944C137.496 258.7 137.131 256.189 137.131 253.414C137.131 250.639 137.481 248.208 138.187 245.984C138.891 243.76 139.938 241.858 141.324 240.271C142.71 238.686 144.418 237.464 146.441 236.606C148.467 235.748 150.777 235.317 153.377 235.317C156.238 235.317 158.695 235.802 160.741 236.769C162.787 237.739 164.46 239.039 165.76 240.667C167.06 242.297 168.007 244.179 168.601 246.314C169.195 248.449 169.494 250.685 169.494 253.018C169.494 254.622 168.194 255.922 166.589 255.922H147.239V256.447C147.239 258.717 147.856 260.52 149.087 261.851C150.318 263.183 152.258 263.848 154.898 263.848C156.924 263.848 158.574 263.444 159.851 262.637C160.27 262.371 160.681 262.086 161.082 261.785C162.471 260.741 164.443 260.999 165.53 262.356L166.42 263.467C167.565 264.893 167.318 267.011 165.838 268.087C164.779 268.856 163.588 269.511 162.259 270.053C159.771 271.069 156.941 271.577 153.773 271.577L153.776 271.58ZM153.578 242.52C151.598 242.52 150.045 243.169 148.923 244.469C147.801 245.769 147.239 247.497 147.239 249.655V250.183H159.392V249.589C159.392 247.476 158.919 245.769 157.972 244.469C157.025 243.172 155.561 242.52 153.578 242.52Z" fill="#6244EC"/>
<path d="M186.138 270.788C182.792 270.788 180.335 269.973 178.774 268.346C177.21 266.715 176.43 264.362 176.43 261.28V225.153C176.43 223.365 177.879 221.916 179.667 221.916H182.97C184.758 221.916 186.207 223.365 186.207 225.153V262.072C186.207 262.692 186.709 263.194 187.329 263.194C189.117 263.194 190.566 264.643 190.566 266.431V267.553C190.566 269.341 189.117 270.791 187.329 270.791H186.141L186.138 270.788Z" fill="#6244EC"/>
<path d="M205.621 270.788C202.275 270.788 199.819 269.973 198.258 268.346C196.694 266.715 195.913 264.362 195.913 261.28V225.153C195.913 223.365 197.362 221.916 199.15 221.916H202.453C204.241 221.916 205.69 223.365 205.69 225.153V262.072C205.69 262.692 206.193 263.194 206.812 263.194C208.6 263.194 210.05 264.643 210.05 266.431V267.553C210.05 269.341 208.6 270.791 206.812 270.791H205.624L205.621 270.788Z" fill="#6244EC"/>
<path d="M241.548 270.788C239.786 270.788 238.322 270.237 237.157 269.137C235.989 268.038 235.252 266.56 234.945 264.712H234.549C234.021 266.959 232.853 268.664 231.047 269.832C229.242 270.997 227.018 271.582 224.375 271.582C220.897 271.582 218.234 270.661 216.383 268.819C214.535 266.976 213.611 264.54 213.611 261.51C213.611 257.868 214.942 255.156 217.606 253.38C220.269 251.603 223.89 250.714 228.47 250.714H233.952V248.535C233.952 246.862 233.51 245.531 232.632 244.541C231.751 243.551 230.276 243.054 228.206 243.054C226.269 243.054 224.728 243.473 223.583 244.308C223.259 244.546 222.949 244.79 222.656 245.046C221.422 246.119 219.591 246.125 218.372 245.034L217.278 244.059C215.878 242.81 215.803 240.609 217.169 239.324C218.093 238.451 219.121 237.705 220.249 237.085C222.384 235.911 225.276 235.326 228.932 235.326C233.863 235.326 237.562 236.405 240.027 238.563C242.492 240.721 243.726 243.869 243.726 248.007V263.197C245.514 263.197 246.963 264.646 246.963 266.434V267.556C246.963 269.344 245.514 270.793 243.726 270.793H241.548V270.788ZM228.008 264.778C229.638 264.778 231.036 264.428 232.201 263.731C233.366 263.031 233.952 261.897 233.952 260.322V256.258H229.197C225.365 256.258 223.451 257.546 223.451 260.126V261.111C223.451 262.379 223.847 263.306 224.639 263.897C225.431 264.488 226.553 264.781 228.008 264.781V264.778Z" fill="#6244EC"/>
</svg>
