<svg width="58" height="58" viewBox="0 0 58 58" fill="none" xmlns="http://www.w3.org/2000/svg">
<g filter="url(#filter0_d_131_480)">
<path d="M44.4282 4H13.5718C8.83772 4 5 7.83772 5 12.5718V43.4282C5 48.1623 8.83772 52 13.5718 52H44.4282C49.1623 52 53 48.1623 53 43.4282V12.5718C53 7.83772 49.1623 4 44.4282 4Z" fill="#6244EC"/>
<path d="M28.9951 17.2066C32.5068 17.2066 32.9217 17.2167 34.3082 17.2876C35.5935 17.3483 36.2917 17.5608 36.7472 17.743C37.3645 17.9859 37.7997 18.2692 38.2551 18.7247C38.7206 19.1902 39.004 19.6253 39.2367 20.2326C39.4189 20.6981 39.6314 21.3964 39.6921 22.6715C39.7528 24.058 39.7731 24.4729 39.7731 27.9846C39.7731 31.4963 39.763 31.9112 39.6921 33.2977C39.6314 34.583 39.4189 35.2813 39.2367 35.7367C38.9938 36.354 38.7105 36.7892 38.2551 37.2547C37.7997 37.7202 37.3544 38.0036 36.7472 38.2363C36.2816 38.4185 35.5833 38.631 34.3082 38.6918C32.9217 38.7525 32.5068 38.7727 28.9951 38.7727C25.4834 38.7727 25.0685 38.7626 23.682 38.6918C22.3967 38.631 21.6985 38.4185 21.243 38.2363C20.6257 37.9935 20.1905 37.7101 19.725 37.2547C19.2696 36.7892 18.9761 36.354 18.7434 35.7367C18.5612 35.2711 18.3487 34.5728 18.288 33.2977C18.2272 31.9112 18.207 31.4963 18.207 27.9846C18.207 24.4729 18.2171 24.058 18.288 22.6715C18.3487 21.3863 18.5612 20.688 18.7434 20.2326C18.9862 19.6152 19.2696 19.1801 19.725 18.7247C20.1905 18.2591 20.6257 17.9758 21.243 17.743C21.7086 17.5608 22.4069 17.3483 23.682 17.2876C25.0685 17.2269 25.4834 17.2066 28.9951 17.2066ZM28.9951 14.8385C25.4227 14.8385 24.9774 14.8587 23.5707 14.9195C22.1741 14.9802 21.2127 15.2028 20.3727 15.5267C19.5024 15.8606 18.7737 16.316 18.0451 17.0447C17.3164 17.7734 16.861 18.5121 16.527 19.3723C16.2032 20.2123 15.9805 21.1636 15.9198 22.5703C15.8591 23.977 15.8389 24.4223 15.8389 27.9947C15.8389 31.5672 15.849 32.0124 15.9198 33.4191C15.9805 34.8157 16.2032 35.7771 16.527 36.6171C16.861 37.4773 17.3164 38.2161 18.0451 38.9448C18.7737 39.6734 19.5125 40.1288 20.3727 40.4628C21.2127 40.7866 22.164 41.0093 23.5707 41.07C24.9774 41.1307 25.4227 41.151 28.9951 41.151C32.5675 41.151 33.0128 41.1408 34.4195 41.07C35.8161 41.0093 36.7775 40.7866 37.6175 40.4628C38.4878 40.1288 39.2165 39.6734 39.9451 38.9448C40.6738 38.2161 41.1292 37.4773 41.4632 36.6171C41.787 35.7771 42.0096 34.8259 42.0704 33.4191C42.1311 32.0124 42.1513 31.5672 42.1513 27.9947C42.1513 24.4223 42.1412 23.977 42.0704 22.5703C42.0096 21.1737 41.787 20.2123 41.4632 19.3723C41.1292 18.5121 40.6738 17.7734 39.9451 17.0447C39.2165 16.316 38.4777 15.8606 37.6175 15.5267C36.7775 15.2028 35.8262 14.9802 34.4195 14.9195C33.0128 14.8587 32.5675 14.8385 28.9951 14.8385Z" fill="white"/>
<path d="M28.9947 21.2448C25.2603 21.2448 22.2344 24.2707 22.2344 28.0051C22.2344 31.7394 25.2603 34.7654 28.9947 34.7654C32.729 34.7654 35.7549 31.7394 35.7549 28.0051C35.7549 24.2707 32.729 21.2448 28.9947 21.2448ZM28.9947 32.3871C26.5759 32.3871 24.6126 30.4238 24.6126 28.0051C24.6126 25.5864 26.5759 23.6231 28.9947 23.6231C31.4134 23.6231 33.3767 25.5864 33.3767 28.0051C33.3767 30.4238 31.4134 32.3871 28.9947 32.3871Z" fill="white"/>
<path d="M37.5969 20.9714C37.5969 21.8418 36.8885 22.5502 36.0182 22.5502C35.1479 22.5502 34.4395 21.8418 34.4395 20.9714C34.4395 20.1011 35.1479 19.3927 36.0182 19.3927C36.8885 19.3927 37.5969 20.1011 37.5969 20.9714Z" fill="white"/>
</g>
<defs>
<filter id="filter0_d_131_480" x="0" y="0" width="58" height="58" filterUnits="userSpaceOnUse" color-interpolation-filters="sRGB">
<feFlood flood-opacity="0" result="BackgroundImageFix"/>
<feColorMatrix in="SourceAlpha" type="matrix" values="0 0 0 0 0 0 0 0 0 0 0 0 0 0 0 0 0 0 127 0" result="hardAlpha"/>
<feOffset dy="1"/>
<feGaussianBlur stdDeviation="2.5"/>
<feComposite in2="hardAlpha" operator="out"/>
<feColorMatrix type="matrix" values="0 0 0 0 0.270588 0 0 0 0 0 0 0 0 0 0.67451 0 0 0 0.3 0"/>
<feBlend mode="normal" in2="BackgroundImageFix" result="effect1_dropShadow_131_480"/>
<feBlend mode="normal" in="SourceGraphic" in2="effect1_dropShadow_131_480" result="shape"/>
</filter>
</defs>
</svg>
